<svg width="20" height="20" viewBox="0 0 20 20" fill="none" xmlns="http://www.w3.org/2000/svg">
<path d="M10 4.07825e-05C15.5228 4.07825e-05 20 4.4772 20 10C20 15.5228 15.5228 20 10 20C4.4772 20 4.14787e-05 15.5228 4.14787e-05 10C-0.0156734 4.49286 4.43598 0.0157556 9.94309 4.07825e-05C9.96207 -1.35942e-05 9.98104 -1.35942e-05 10 4.07825e-05Z" fill="#FF9900"/>
<path d="M11.8904 8.7532C12.686 8.02783 13.7619 7.0468 13.8599 4.70312H14.5703V4H5.42969V4.70312H6.14005C6.23812 7.0468 7.31404 8.02783 8.10965 8.7532C8.64334 9.23978 8.94531 9.5376 8.94531 10C8.94531 10.4624 8.64334 10.7602 8.10965 11.2468C7.31404 11.9722 6.23812 12.9532 6.14005 15.2969H5.42969V16H14.5703V15.2969H13.8599C13.7619 12.9532 12.686 11.9722 11.8904 11.2468C11.3567 10.7602 11.0547 10.4624 11.0547 10C11.0547 9.5376 11.3567 9.23978 11.8904 8.7532ZM9.64844 12.6353C9.53985 12.6577 9.43258 12.6903 9.32788 12.7336L7.17452 13.6247C7.52617 12.7305 8.09256 12.2139 8.58337 11.7664C9.1311 11.267 9.64844 10.7954 9.64844 10V12.6353ZM11.4166 11.7664C11.9074 12.2139 12.4738 12.7305 12.8255 13.6246L10.6721 12.7336C10.5674 12.6902 10.4601 12.6576 10.3516 12.6352V10C10.3516 10.7954 10.8689 11.267 11.4166 11.7664ZM7.16216 6.34375C6.99217 5.9008 6.87477 5.36598 6.84405 4.70312H13.1559C13.1252 5.36598 13.0078 5.9008 12.8378 6.34375H7.16216Z" fill="#EFEFEF"/>
</svg>
