<svg width="250" height="250" viewBox="0 0 250 250" fill="none" xmlns="http://www.w3.org/2000/svg">
<g clip-path="url(#clip0)">
<path d="M208.295 91.8962C196.741 45.8671 150.061 17.92 104.032 29.4744C68.061 38.5041 41.9422 69.593 39.2511 106.582C13.7105 110.794 -3.58011 134.913 0.631831 160.453C4.37605 183.159 24.0507 199.788 47.0628 199.696H86.121V184.073H47.0628C29.8059 184.073 15.8162 170.083 15.8162 152.827C15.8162 135.57 29.8059 121.58 47.0628 121.58C51.3773 121.58 54.8744 118.083 54.8744 113.768C54.8354 74.9401 86.2807 43.4318 125.109 43.3932C158.72 43.3596 187.654 67.1216 194.156 100.098C194.798 103.391 197.47 105.906 200.796 106.347C222.152 109.388 236.999 129.166 233.958 150.522C231.227 169.698 214.854 183.976 195.484 184.073H164.237V199.696H195.484C225.684 199.605 250.091 175.049 250 144.849C249.923 119.711 232.716 97.8619 208.295 91.8962Z" fill="#B3B3B3"/>
<path d="M119.633 123.846L88.3864 155.092L99.4008 166.107L117.368 148.218V223.132H132.991V148.218L150.88 166.107L161.894 155.092L130.647 123.846C127.6 120.817 122.68 120.817 119.633 123.846Z" fill="#B3B3B3"/>
</g>
<defs>
<clipPath id="clip0">
<rect width="250" height="250" fill="white"/>
</clipPath>
</defs>
</svg>
